<?xml version="1.0"?><svg width="168.50922" height="172.66716" xmlns="http://www.w3.org/2000/svg" xmlns:xlink="http://www.w3.org/1999/xlink">
 <title>alfinete</title>
 <defs>
  <linearGradient id="linearGradient4795">
   <stop stop-color="#34434f" id="stop4797" offset="0"/>
   <stop stop-color="#43acff" offset="1" id="stop4803"/>
  </linearGradient>
  <linearGradient id="linearGradient4605">
   <stop stop-color="#67a6c0" id="stop4607" offset="0"/>
   <stop stop-color="#287386" id="stop4609" offset="1"/>
  </linearGradient>
  <linearGradient id="linearGradient4597">
   <stop stop-color="#1b507b" id="stop4599" offset="0"/>
   <stop stop-color="#18232b" id="stop4601" offset="1"/>
  </linearGradient>
  <linearGradient id="linearGradient20316">
   <stop stop-color="#347fb6" stop-opacity="0" id="stop20318" offset="0"/>
   <stop stop-color="#000000" id="stop20320" offset="1"/>
  </linearGradient>
  <linearGradient id="linearGradient16207">
   <stop stop-color="#00ff00" offset="0" id="stop16209"/>
   <stop stop-color="#00ffff" stop-opacity="0" offset="1" id="stop16211"/>
  </linearGradient>
  <linearGradient id="linearGradient16185">
   <stop stop-color="#00ff00" id="stop16187" offset="0"/>
   <stop stop-color="#00ff00" stop-opacity="0" id="stop16189" offset="1"/>
  </linearGradient>
  <linearGradient id="linearGradient16177">
   <stop stop-color="#ffff00" id="stop16179" offset="0"/>
   <stop stop-color="#ffff00" stop-opacity="0" id="stop16181" offset="1"/>
  </linearGradient>
  <linearGradient id="linearGradient16169">
   <stop stop-color="#ff0000" id="stop16171" offset="0"/>
   <stop stop-color="#ff0000" stop-opacity="0" id="stop16173" offset="1"/>
  </linearGradient>
  <linearGradient id="linearGradient16161">
   <stop stop-color="#ff00ff" id="stop16163" offset="0"/>
   <stop stop-color="#ff00ff" stop-opacity="0" id="stop16165" offset="1"/>
  </linearGradient>
  <clipPath id="clipPath16220" clipPathUnits="userSpaceOnUse">
   <text font-size="119.522263px" font-weight="bold" fill="#ff00ff" fill-rule="nonzero" stroke-width="5" stroke-linecap="round" stroke-linejoin="round" stroke-miterlimit="4" stroke-dashoffset="0" font-family="Arial" y="-471.119854" x="-2596.914655" id="text16222" xml:space="preserve">
    <tspan id="tspan16226">R  mi BERTHOLET</tspan>
   </text>
  </clipPath>
  <linearGradient y2="0.87443" x2="0.061588" y1="0.655736" x1="0.212871" id="linearGradient16228" xlink:href="#linearGradient16207"/>
  <linearGradient y2="-0.163368" x2="0.755142" y1="0.762432" x1="0.390654" id="linearGradient16230" xlink:href="#linearGradient16177"/>
  <linearGradient y2="Infinity" x2="0.197279" y1="Infinity" x1="0.503401" id="linearGradient16232" xlink:href="#linearGradient16169"/>
  <linearGradient y2="0.132491" x2="0.411612" y1="0.644213" x1="0.667473" id="linearGradient16234" xlink:href="#linearGradient16161"/>
  <linearGradient y2="Infinity" x2="-0.25641" y1="Infinity" x1="1.08547" id="linearGradient16236" xlink:href="#linearGradient16185"/>
  <mask id="mask16238" maskUnits="userSpaceOnUse">
   <text font-size="86.535019px" font-weight="bold" fill="#0000ff" fill-rule="nonzero" stroke-width="5" stroke-linecap="round" stroke-linejoin="round" stroke-miterlimit="4" stroke-dashoffset="0" font-family="Gulim" transform="scale(1.0229003,0.9776124)" id="text16240" y="392.82397" x="-1229.2124" xml:space="preserve">
    <tspan font-family="Arial" y="392.82397" x="-1229.2124" id="tspan16242">R  mi BERTHOLET</tspan>
   </text>
  </mask>
  <filter height="1.341502" y="-0.170751" width="1.108968" x="-0.054484" id="filter3253">
   <feGaussianBlur id="feGaussianBlur3255" stdDeviation="1.626725"/>
  </filter>
  <clipPath id="clipPath3261" clipPathUnits="userSpaceOnUse">
   <path fill="#347fb6" fill-rule="evenodd" stroke-width="1px" d="m-680.435852,-592.654114l0,9.59375l0.093811,0c0.41626,8.659119 16.317749,15.625 35.843689,15.625c19.525269,0 35.395203,-6.966248 35.8125,-15.625l0.09375,0l0,-8.3125c0,7.140747 -16.056519,12.9375 -35.84375,12.9375c-19.78717,0 -35.843689,-5.796753 -35.843689,-12.9375c0,-0.436218 0.070435,-0.856079 0.187439,-1.28125l-0.34375,0zm71.84375,1.28125l0,-1.28125l-0.1875,0c0.116943,0.424988 0.1875,0.845215 0.1875,1.28125z" id="path3263"/>
  </clipPath>
  <filter height="1.47229" y="-0.236145" width="1.604906" x="-0.302453" id="filter3305">
   <feGaussianBlur id="feGaussianBlur3307" stdDeviation="7.261801"/>
  </filter>
  <clipPath id="clipPath3315" clipPathUnits="userSpaceOnUse">
   <path opacity="0.218391" fill="#ff0000" fill-opacity="0.75" fill-rule="evenodd" stroke-width="1px" id="path3317" d="m-552.208618,-355.093994c-5.200684,1.312286 -11.190857,2.0625 -17.59375,2.0625c-5.954224,0 -11.587402,-0.635284 -16.53125,-1.78125l-5.875,56.03125c-0.233093,0.585297 -0.320984,1.19873 -0.34375,1.8125c-0.001648,0.08252 -0.030701,0.167236 -0.03125,0.25c0.008789,0.71048 0.141663,1.391479 0.4375,2.0625c0.304504,0.690582 0.765442,1.365265 1.34375,2c0.578247,0.634735 1.2724,1.216705 2.09375,1.78125c0.821411,0.564575 1.778748,1.113556 2.8125,1.59375c1.033752,0.480164 2.159485,0.89975 3.375,1.28125c1.215515,0.381531 2.508484,0.731384 3.875,1c1.366516,0.268585 2.794495,0.483551 4.28125,0.625c1.486816,0.141418 3.048645,0.1875 4.625,0.1875c1.576416,0 3.106995,-0.046082 4.59375,-0.1875c1.486816,-0.141449 2.914734,-0.356384 4.28125,-0.625c1.366516,-0.268616 2.659485,-0.618469 3.875,-1c1.215515,-0.3815 2.341248,-0.801086 3.375,-1.28125c1.033752,-0.480194 1.991089,-1.029175 2.8125,-1.59375c0.821411,-0.564545 1.515503,-1.146515 2.09375,-1.78125c0.578308,-0.634735 1.039246,-1.309418 1.34375,-2c0.154541,-0.350433 0.140686,-0.700439 0.21875,-1.0625c0.014038,-0.295593 0.09375,-0.576324 0.09375,-0.875c0,-0.553528 -0.139709,-1.082489 -0.1875,-1.625c-0.068481,-0.233368 -0.024292,-0.490448 -0.125,-0.71875c-0.096191,-0.218231 -0.249084,-0.41214 -0.375,-0.625l-4.46875,-55.53125z"/>
  </clipPath>
  <clipPath id="clipPath3335" clipPathUnits="userSpaceOnUse">
   <path fill="#347fb6" fill-rule="nonzero" stroke-width="5" stroke-linecap="round" stroke-linejoin="round" marker-start="none" marker-mid="none" marker-end="none" stroke-miterlimit="4" stroke-dashoffset="0" id="path3337" d="m384.942352,120.94146l-5.69516,-42.196098l8.283875,-1.294365l-4.918549,-15.532307l-27.95816,14.237949l-2.847595,34.429955l30.805756,19.674255l2.329834,-9.319389z"/>
  </clipPath>
  <clipPath id="clipPath3345" clipPathUnits="userSpaceOnUse">
   <path fill="#347fb6" fill-rule="nonzero" stroke-width="5" stroke-linecap="round" stroke-linejoin="round" marker-start="none" marker-mid="none" marker-end="none" stroke-miterlimit="4" stroke-dashoffset="0" d="m-805.157349,-419.656189c-20.104675,-1.614044 -35.807983,-8.71225 -39.258362,-17.745605c-0.801697,-2.09903 -1.022583,-4.294678 -0.727905,-7.236481c1.199341,-11.974548 7.640259,-22.509705 18.370422,-30.048248c1.376526,-0.967041 5.968567,-3.659576 5.948547,-3.487885c-0.031189,0.268188 -0.82959,6.805878 -0.940247,7.699799c-0.559326,4.517639 5.997559,8.905457 15.698425,10.505219c3.005005,0.495514 10.63562,0.556458 13.593811,0.108551c6.167542,-0.933868 11.205017,-2.922699 14.053711,-5.548584c1.909058,-1.759674 2.543091,-3.536957 2.10376,-5.89682c-0.561279,-3.014709 -0.710205,-4.046814 -0.843689,-5.846069l-0.138977,-1.872803l1.602539,0.804138c10.791504,5.414917 18.885498,14.275696 22.419617,24.543396c1.495972,4.346344 1.925171,6.891663 1.944946,11.53363c0.018677,4.388641 0.016602,4.40509 -0.757813,5.954071c-0.991455,1.983124 -4.732422,5.790192 -7.37793,7.508209c-6.424377,4.172211 -15.389038,7.04187 -26.793213,8.576691c-2.74353,0.369232 -15.97467,0.683441 -18.897644,0.448792l0,0z" id="path3347"/>
  </clipPath>
  <filter height="1.238911" y="-0.119456" width="1.35919" x="-0.179595" id="filter4145">
   <feGaussianBlur id="feGaussianBlur4147" stdDeviation="2.8089"/>
  </filter>
  <clipPath id="clipPath4149" clipPathUnits="userSpaceOnUse">
   <path fill="#347fb6" fill-rule="evenodd" stroke-width="1px" d="m-548.203857,-303.302429l0.500061,6.25c0.125916,0.21283 0.278748,0.406738 0.374939,0.625031c0.100708,0.228271 0.056519,0.485321 0.125,0.718719c0.047791,0.542511 0.187561,1.071472 0.187561,1.625c0,0.298676 -0.079712,0.579407 -0.09375,0.875c-0.078064,0.36203 -0.06427,0.712036 -0.218811,1.0625c-0.304443,0.690582 -0.765381,1.365265 -1.34375,2c-0.578247,0.634705 -1.272339,1.216675 -2.093689,1.78125c-0.821411,0.564575 -1.778748,1.113556 -2.812561,1.59375c-1.033752,0.480164 -2.159485,0.899719 -3.374939,1.28125c-1.215515,0.381531 -2.508545,0.731384 -3.875,1c-1.366516,0.268585 -2.794434,0.483551 -4.28125,0.625c-1.486816,0.141418 -3.017395,0.1875 -4.593811,0.1875c-1.576355,0 -3.138184,-0.046082 -4.625,-0.1875c-1.486755,-0.141449 -2.914734,-0.356415 -4.281189,-0.625c-1.366516,-0.268616 -2.659546,-0.618469 -3.875061,-1c-1.215454,-0.381531 -2.341187,-0.801086 -3.374939,-1.28125c-1.033813,-0.480194 -1.99115,-1.029175 -2.812561,-1.59375c-0.82135,-0.564575 -1.515442,-1.146576 -2.093689,-1.78125c-0.578308,-0.634705 -1.039246,-1.309418 -1.34375,-2c-0.295898,-0.671021 -0.428711,-1.35202 -0.437561,-2.0625c0.000549,-0.082794 0.029663,-0.16748 0.031311,-0.25c0.022827,-0.61377 0.110657,-1.227234 0.343689,-1.8125l0.656311,-6.25c-14.728577,7.216766 -24.75,21.276703 -24.75,37.4375c0,14.160645 7.714661,26.6987 19.53125,34.4375c-11.766113,-7.747513 -19.406311,-20.30545 -19.406311,-34.4375c0,-0.085907 0.030701,-0.164185 0.031311,-0.25c0.018188,1.473236 0.323975,2.921112 0.937439,4.3125c0.631409,1.431976 1.550903,2.808899 2.75,4.125c1.199158,1.316116 2.671814,2.548065 4.375,3.71875c1.703247,1.170685 3.637634,2.285553 5.781311,3.28125c2.143616,0.995682 4.479553,1.896378 7,2.6875c2.520386,0.791107 5.228943,1.474274 8.0625,2.03125c2.833496,0.556976 5.791992,0.987976 8.874939,1.28125c3.083008,0.293274 6.293762,0.437485 9.562561,0.437485c3.268738,0 6.448242,-0.144211 9.531189,-0.437485c3.083008,-0.293274 6.072754,-0.724274 8.90625,-1.28125c2.833557,-0.556976 5.510864,-1.240143 8.03125,-2.03125c2.520447,-0.791122 4.856384,-1.691818 7,-2.6875c2.143677,-0.995697 4.109314,-2.110565 5.8125,-3.28125c1.703247,-1.170685 3.144653,-2.402634 4.34375,-3.71875c1.199219,-1.316101 2.149902,-2.693024 2.78125,-4.125c0.320435,-0.726685 0.338196,-1.499237 0.500061,-2.25c-0.088196,1.858032 -0.283691,3.680908 -0.625061,5.46875c0.463379,-2.370209 0.718811,-4.789368 0.718811,-7.28125c0,-16.780701 -10.77594,-31.278534 -26.437561,-38.21875zm25.71875,45.5c-0.223206,1.169373 -0.486206,2.333939 -0.8125,3.46875c0.329712,-1.128113 0.585327,-2.306488 0.8125,-3.46875zm-0.90625,3.71875c-0.151489,0.513885 -0.327881,1.02507 -0.499939,1.53125c0.175293,-0.508698 0.345276,-1.014832 0.499939,-1.53125zm-1.03125,3c-0.244141,0.627243 -0.506653,1.260925 -0.78125,1.875c0.274292,-0.616974 0.538574,-1.244553 0.78125,-1.875zm-72.28125,20.4375c2.142029,1.401138 4.389893,2.652344 6.781311,3.71875c-2.383423,-1.069946 -4.647522,-2.315399 -6.781311,-3.71875zm10.500061,5.187485c1.245728,0.439667 2.518127,0.842712 3.812439,1.187515c-1.300903,-0.349152 -2.561096,-0.742401 -3.812439,-1.187515z" id="path4151" clip-path="none"/>
  </clipPath>
  <clipPath id="clipPath4221" clipPathUnits="userSpaceOnUse">
   <path fill="#b6343c" fill-rule="evenodd" stroke-width="1px" d="m-623.276672,-364.65509l0.500061,6.250031c0.125916,0.21283 0.278748,0.406769 0.374939,0.625c0.100708,0.228302 0.056519,0.485352 0.125,0.71875c0.047791,0.542511 0.1875,1.071472 0.1875,1.625c0,0.298676 -0.079651,0.579376 -0.093689,0.875c-0.078125,0.362061 -0.06427,0.712036 -0.218811,1.0625c-0.304443,0.690582 -0.765381,1.365265 -1.343689,2c-0.578308,0.634705 -1.272339,1.216675 -2.093811,1.78125c-0.821411,0.564575 -1.778687,1.113586 -2.8125,1.59375c-1.033752,0.480194 -2.159485,0.899719 -3.374939,1.281281c-1.215515,0.3815 -2.508545,0.731354 -3.875061,1c-1.366455,0.268585 -2.794434,0.483521 -4.28125,0.624969c-1.486755,0.141449 -3.017334,0.1875 -4.593689,0.1875c-1.576416,0 -3.138245,-0.046082 -4.625061,-0.1875c-1.486755,-0.141418 -2.914734,-0.356384 -4.28125,-0.624969c-1.366455,-0.268646 -2.659485,-0.6185 -3.875,-1c-1.215454,-0.381561 -2.341187,-0.801117 -3.375,-1.281281c-1.033752,-0.480164 -1.991089,-1.029175 -2.812439,-1.59375c-0.821411,-0.564575 -1.515503,-1.146545 -2.093811,-1.78125c-0.578247,-0.634705 -1.039185,-1.309418 -1.34375,-2c-0.295837,-0.67099 -0.428711,-1.35202 -0.437439,-2.0625c0.000488,-0.082764 0.029602,-0.16748 0.031189,-0.25c0.022827,-0.61377 0.110657,-1.227203 0.343811,-1.8125l0.656189,-6.25c-14.728516,7.216736 -24.749939,21.276733 -24.749939,37.4375c0,14.160645 7.714661,26.6987 19.531189,34.437531c-11.766052,-7.747559 -19.40625,-20.305481 -19.40625,-34.437531c0,-0.085938 0.030701,-0.164185 0.03125,-0.25c0.01825,1.473267 0.324036,2.921112 0.937561,4.3125c0.631409,1.431976 1.550842,2.808899 2.75,4.125c1.199097,1.316101 2.671753,2.548065 4.374939,3.71875c1.703308,1.170685 3.637634,2.285553 5.781311,3.28125c2.143616,0.995697 4.479553,1.896393 7,2.6875c2.520386,0.791138 5.228943,1.474274 8.062439,2.03125c2.833557,0.556976 5.792053,0.987976 8.875,1.28125c3.083008,0.293274 6.293762,0.4375 9.5625,0.4375c3.268799,0 6.448303,-0.144226 9.531311,-0.4375c3.082947,-0.293274 6.072693,-0.724274 8.906189,-1.28125c2.833557,-0.556976 5.510864,-1.240112 8.031311,-2.03125c2.520386,-0.791107 4.856323,-1.691803 7,-2.6875c2.143616,-0.995697 4.109253,-2.110565 5.812439,-3.28125c1.703247,-1.170685 3.144653,-2.402649 4.34375,-3.71875c1.199158,-1.316101 2.149902,-2.693024 2.781311,-4.125c0.320374,-0.726685 0.338135,-1.499207 0.5,-2.25c-0.088196,1.858032 -0.283691,3.680908 -0.625061,5.46875c0.463318,-2.370209 0.71875,-4.789368 0.71875,-7.28125c0,-16.780731 -10.77594,-31.278564 -26.4375,-38.218781zm25.71875,45.500031c-0.223206,1.169373 -0.486206,2.333923 -0.812439,3.46875c0.329651,-1.128113 0.585266,-2.306488 0.812439,-3.46875zm-0.906189,3.71875c-0.15155,0.513885 -0.327942,1.025085 -0.5,1.53125c0.175293,-0.508698 0.345215,-1.014832 0.5,-1.53125zm-1.03125,3c-0.244202,0.627258 -0.506714,1.260925 -0.781311,1.875c0.274292,-0.616974 0.538574,-1.244537 0.781311,-1.875zm-72.28125,20.437531c2.141968,1.401123 4.389832,2.652313 6.781189,3.71875c-2.383362,-1.069946 -4.647461,-2.31543 -6.781189,-3.71875zm10.499939,5.187469c1.245789,0.439667 2.518127,0.842682 3.812561,1.1875c-1.300903,-0.349152 -2.561218,-0.742401 -3.812561,-1.1875z" id="path4223" clip-path="none"/>
  </clipPath>
  <filter height="2.083478" y="-0.541739" width="1.265187" x="-0.132594" id="filter4282">
   <feGaussianBlur id="feGaussianBlur4284" stdDeviation="2.506386"/>
  </filter>
  <linearGradient gradientUnits="userSpaceOnUse" y2="-25.858351" x2="203.92746" y1="-99.078354" x1="146.19041" id="linearGradient4801" xlink:href="#linearGradient4795"/>
  <filter height="1.641938" y="-0.320969" width="2.092494" x="-0.546247" id="filter4901">
   <feGaussianBlur id="feGaussianBlur4903" stdDeviation="7.950651"/>
  </filter>
  <filter height="1.380791" y="-0.190396" width="1.105495" x="-0.052747" id="filter4969">
   <feGaussianBlur id="feGaussianBlur4971" stdDeviation="2.049981"/>
  </filter>
  <filter height="1.227877" y="-0.113939" width="1.164847" x="-0.082424" id="filter5003">
   <feGaussianBlur id="feGaussianBlur5005" stdDeviation="0.417853"/>
  </filter>
  <linearGradient y2="-25.858351" x2="203.92746" y1="-99.078354" x1="146.19041" gradientUnits="userSpaceOnUse" id="linearGradient5036" xlink:href="#linearGradient4795"/>
  <filter height="1.666053" y="-0.333026" width="1.268392" x="-0.134196" id="filter5118">
   <feGaussianBlur id="feGaussianBlur5120" stdDeviation="0.332319"/>
  </filter>
  <linearGradient y2="-25.858351" x2="203.92746" y1="-99.078354" x1="146.19041" gradientUnits="userSpaceOnUse" id="linearGradient5138" xlink:href="#linearGradient4795"/>
  <linearGradient y2="-25.858351" x2="203.92746" y1="-99.078354" x1="146.19041" gradientUnits="userSpaceOnUse" id="linearGradient5154" xlink:href="#linearGradient4795"/>
  <linearGradient y2="-25.858351" x2="203.92746" y1="-99.078354" x1="146.19041" gradientUnits="userSpaceOnUse" id="linearGradient5169" xlink:href="#linearGradient4795"/>
  <clipPath id="clipPath5223" clipPathUnits="userSpaceOnUse">
   <path fill="#336894" fill-rule="evenodd" stroke-width="1px" id="path5225" d="m391.842316,-52.993534a35.846329,12.936188 0 1 1 -71.692657,0a35.846329,12.936188 0 1 1 71.692657,0z"/>
  </clipPath>
  <linearGradient y2="-25.858351" x2="203.92746" y1="-99.078354" x1="146.19041" gradientUnits="userSpaceOnUse" id="linearGradient5408" xlink:href="#linearGradient4795"/>
  <filter height="1.095289" y="-0.047644" width="1.994432" x="-0.497216" id="filter5470">
   <feGaussianBlur id="feGaussianBlur5472" stdDeviation="0.611451"/>
  </filter>
  <clipPath id="clipPath5476" clipPathUnits="userSpaceOnUse">
   <path fill="#918b7b" fill-rule="nonzero" stroke-width="5" stroke-linecap="round" stroke-linejoin="round" marker-start="none" marker-mid="none" marker-end="none" stroke-miterlimit="4" stroke-dashoffset="0" d="m-342.258484,-363.846497l10.616882,-0.366119c0,0 0.939362,21.265442 1.281372,29.288025c-0.308105,0.811249 -0.770325,1.00882 -1.561493,1.420929c-0.777496,0.405029 -2.192291,0.293304 -3.95224,0.022217c-1.755341,-0.270386 -2.669922,-0.893982 -3.455719,-1.443146c-0.874908,-0.611389 -0.894012,-0.570404 -1.830505,-2.01355c-0.918671,-1.41568 -1.098297,-2.745758 -1.098297,-2.745758l0,-24.162598z" id="path5478"/>
  </clipPath>
  <filter height="1.105565" y="-0.052782" width="1.675895" x="-0.337948" id="filter5554">
   <feGaussianBlur id="feGaussianBlur5556" stdDeviation="0.64653"/>
  </filter>
  <clipPath id="clipPath5558" clipPathUnits="userSpaceOnUse">
   <path fill="#918b7b" fill-rule="nonzero" stroke-width="5" stroke-linecap="round" stroke-linejoin="round" marker-start="none" marker-mid="none" marker-end="none" stroke-miterlimit="4" stroke-dashoffset="0" id="path5560" d="m-348.147827,-371.030182l11.522949,-0.366089c0,0 0.939362,21.265381 1.281372,29.287994c-0.308105,0.811279 -0.770325,1.00882 -1.561493,1.420959c-0.777496,0.404999 -2.192291,0.293274 -3.95224,0.022186c-1.755341,-0.270355 -2.669922,-0.893982 -3.455719,-1.443146c-0.874908,-0.611389 -0.894012,-0.570404 -1.830505,-2.01355c-0.918701,-1.41568 -1.098297,-2.745758 -1.098297,-2.745758l-0.906067,-24.162598z"/>
  </clipPath>
  <clipPath id="clipPath5568" clipPathUnits="userSpaceOnUse">
   <path fill="#b8b17a" fill-rule="nonzero" stroke-width="5" stroke-linecap="round" stroke-linejoin="round" marker-start="none" marker-mid="none" marker-end="none" stroke-miterlimit="4" stroke-dashoffset="0" d="m-366.462982,-319.757446l11.522949,-0.366089c0,0 0.939362,21.265411 1.281342,29.287994c-0.308075,0.811249 -0.770294,1.008789 -1.561462,1.420929c-0.777527,0.404999 -2.192291,0.293274 -3.95224,0.022217c-1.755341,-0.270386 -2.669922,-0.893982 -3.45575,-1.443146c-0.874878,-0.611389 -0.893982,-0.570404 -1.830505,-2.01355c-0.918671,-1.41568 -1.098297,-2.745758 -1.098297,-2.745758l-0.906036,-24.162598z" id="path5570"/>
  </clipPath>
  <linearGradient y2="-25.858351" x2="203.92746" y1="-99.078354" x1="146.19041" gradientUnits="userSpaceOnUse" id="linearGradient5602" xlink:href="#linearGradient4795"/>
  <filter height="1.650363" y="-0.325181" width="1.85596" x="-0.42798" id="filter5750">
   <feGaussianBlur id="feGaussianBlur5752" stdDeviation="4.864929"/>
  </filter>
  <filter height="1.42859" y="-0.214295" width="1.272269" x="-0.136135" id="filter5766">
   <feGaussianBlur id="feGaussianBlur5768" stdDeviation="10.144088"/>
  </filter>
  <linearGradient y2="-25.858351" x2="203.92746" y1="-99.078354" x1="146.19041" gradientUnits="userSpaceOnUse" id="linearGradient5770" xlink:href="#linearGradient4795"/>
  <linearGradient y2="-25.858351" x2="203.92746" y1="-99.078354" x1="146.19041" gradientUnits="userSpaceOnUse" id="linearGradient5794" xlink:href="#linearGradient4795"/>
  <linearGradient y2="-25.858351" x2="203.92746" y1="-99.078354" x1="146.19041" gradientUnits="userSpaceOnUse" id="linearGradient5826" xlink:href="#linearGradient4795"/>
  <linearGradient y2="1.067486" x2="1.526249" y1="0.158395" x1="0.771759" id="linearGradient5853" xlink:href="#linearGradient4795"/>
 </defs>
 <metadata id="metadata4">image/svg+xml</metadata>
 <g>
  <title>Layer 1</title>
  <g transform="rotate(47.592 -363.669 749.321)" externalResourcesRequired="false" id="layer1">
   <g transform="matrix(1.32665 -0.0831136 -0.769368 0.801977 1402.8 414.71)" clip-path="url(#clipPath16220)" id="g16213">
    <rect fill="url(#linearGradient16228)" fill-rule="evenodd" stroke="#000000" stroke-width="1.296084px" id="rect12935" width="925.41815" height="431.13251" x="-1231.67865" y="788.615095" ry="215.56625"/>
    <path fill="url(#linearGradient16230)" fill-rule="evenodd" stroke="#000000" stroke-width="1px" id="path16014" d="m-683.25531,1208.467285l-136.796204,61.68396l-140.346558,-53.112549l-61.68396,-136.796387l53.112549,-140.346558l136.796143,-61.683838l140.346619,53.112427l61.683899,136.796143l-53.112488,140.346802z"/>
    <path fill="url(#linearGradient16232)" fill-rule="evenodd" stroke="#000000" stroke-width="1px" id="path16016" d="m-460.398102,1011.324341a210,117.14286 0 1 1 -419.999969,0a210,117.14286 0 1 1 419.999969,0z"/>
    <path fill="url(#linearGradient16234)" fill-rule="evenodd" stroke="#000000" stroke-width="1px" id="path16053" d="m-123.255379,1217.038696l-192.525169,-48.62793l0.235168,198.571533l-101.750824,-170.520996l-140.244812,140.577393l48.627808,-192.525146l-198.571289,0.235107l170.520935,-101.750732l-140.577454,-140.244873l192.525208,48.627686l-0.235138,-198.57135l101.750824,170.521057l140.244781,-140.577454l-48.627777,192.525208l198.571281,-0.235107l-170.520866,101.750732l140.577324,140.244873z"/>
    <path fill="url(#linearGradient16236)" fill-rule="evenodd" stroke="#000000" stroke-width="1px" id="path16057" d="m-1006.112366,1009.895874a167.142853,132.857147 0 1 1 -334.285706,0a167.142853,132.857147 0 1 1 334.285706,0z"/>
   </g>
   <g externalResourcesRequired="false" transform="matrix(0.985151 -0.171692 0.171692 0.985151 197.754 175.776)" id="g5800">
    <g id="g5796">
     <path opacity="0.610294" fill="#000000" fill-rule="nonzero" stroke-width="5" stroke-linecap="round" stroke-linejoin="round" marker-start="none" marker-mid="none" marker-end="none" stroke-miterlimit="4" stroke-dashoffset="0" filter="url(#filter5750)" id="path5482" d="m-713.255859,-270.062225l6.646851,-10.351227c0,0 14.827209,20.346527 20.413513,28.033234c0.359924,1.07428 0.215942,1.671448 0.019165,2.767273c-0.193359,1.076904 -1.114563,2.191895 -2.349121,3.447479c-1.231262,1.25235 -2.196716,1.424438 -3.035095,1.559082c-0.933411,0.149872 -0.917419,0.207214 -2.445679,-0.417145c-1.499146,-0.612488 -2.49884,-1.780334 -2.49884,-1.780334l-16.750793,-23.258362z"/>
     <path opacity="0.5" fill="#000000" fill-rule="nonzero" stroke-width="5" stroke-linecap="round" stroke-linejoin="round" marker-start="none" marker-mid="none" marker-end="none" stroke-miterlimit="4" stroke-dashoffset="0" filter="url(#filter5766)" d="m-700.833374,-265.90448c-15.658936,3.743683 -31.832214,4.163116 -42.225159,1.095093c-4.650085,-1.372772 -7.530762,-3.227264 -9.890869,-6.367676c-6.683838,-8.893463 -6.393311,-18.604065 0.787537,-26.32666c0.919128,-0.988434 1.365417,-1.665619 1.211121,-1.837555c-0.289734,-0.322815 -22.726074,-31.315979 -23.352112,-32.258148c-0.423889,-0.637939 -0.447449,-0.646362 -1.575989,-0.562012c-8.308044,0.620911 -16.317993,-0.322937 -20.527954,-2.418915c-1.805847,-0.899048 -2.206848,-1.254608 -5.525269,-4.899048c-2.773804,-3.046265 -2.816467,-3.105438 -2.875549,-3.985321c-0.520752,-7.75354 27.590027,-18.495056 49.482605,-18.90799c6.092712,-0.114929 11.302734,0.749451 13.75238,2.281525c2.680237,1.67627 6.755127,6.586334 7.065918,8.51413c0.305847,1.896881 -0.904358,4.224854 -3.442261,6.621704c-1.089294,1.028717 -5.580627,4.093628 -6.282104,4.286926c-0.18927,0.052155 -0.252197,0.197327 -0.139771,0.322571c0.112427,0.125244 7.191956,6.933655 15.732239,15.1297c8.540283,8.196075 15.648926,15.036682 15.796997,15.201385c0.148071,0.164673 0.329651,0.22702 0.403564,0.138519c0.073914,-0.088501 1.247925,-0.09082 2.608948,-0.005188c7.95874,0.500732 16.695313,2.493469 24.165527,5.511963c2.870361,1.159821 7.214417,3.426941 9.730591,5.078247c3.818054,2.505798 4.969482,3.480103 7.736267,6.546631c2.514954,2.787415 2.537903,2.82077 2.644348,3.841797c0.259277,2.487793 -0.730713,4.872711 -3.21405,7.74234c-3.909912,4.518219 -13.255676,9.668304 -23.024231,12.687836c-1.731689,0.535248 -3.596619,1.122131 -4.144287,1.304138c-0.547668,0.182007 -2.751953,0.750824 -4.898499,1.264008l0.000061,0z" id="path5266"/>
    </g>
    <g externalResourcesRequired="false" id="g5772">
     <g id="g5624" transform="matrix(0.999158 0.0410283 -0.0410283 0.999158 -345.502 108.604)">
      <path fill="#b8b17a" fill-rule="nonzero" stroke-width="5" stroke-linecap="round" stroke-linejoin="round" marker-start="none" marker-mid="none" marker-end="none" stroke-miterlimit="4" stroke-dashoffset="0" id="path5626" d="m-366.096893,-365.886078l11.522949,-0.366089c0,0 0.939362,21.265442 1.281342,29.288025c-0.308075,0.811249 -0.770294,1.00882 -1.561462,1.420929c-0.777527,0.405029 -2.192291,0.293274 -3.95224,0.022217c-1.755341,-0.270386 -2.669922,-0.894012 -3.455719,-1.443146c-0.874908,-0.611389 -0.894012,-0.570404 -1.830505,-2.01355c-0.918701,-1.41568 -1.098297,-2.745758 -1.098297,-2.745758l-0.906067,-24.162628z"/>
      <g clip-path="url(#clipPath5568)" id="g5628">
       <path fill="#85807d" fill-rule="nonzero" stroke-width="5" stroke-linecap="round" stroke-linejoin="round" marker-start="none" marker-mid="none" marker-end="none" stroke-miterlimit="4" stroke-dashoffset="0" filter="url(#filter5470)" d="m-358.37616,-334.778351c1.195374,-0.241913 2.453705,-0.675659 2.892975,-0.997192c0.270935,-0.198364 -1.126068,-25.6073 -1.657959,-30.154114l-0.148743,-1.27179l1.668457,0.024017c1.466095,0.021088 1.684631,0.061676 1.802734,0.334747c0.073914,0.170898 0.279022,2.783447 0.45575,5.805573c0.176849,3.022186 0.472809,7.125671 0.657837,9.118866c0.185028,1.993225 0.41153,5.393555 0.503296,7.556305c0.091766,2.16275 0.226044,4.937469 0.298431,6.166077l0.131714,2.233826l-1.365662,0.510803c-1.386108,0.518433 -3.842133,0.925537 -5.389404,0.89328l-0.850922,-0.017731l1.001495,-0.202667z" id="path5630" clip-path="url(#clipPath5476)"/>
       <path fill="#464845" fill-rule="nonzero" stroke-width="5" stroke-linecap="round" stroke-linejoin="round" marker-start="none" marker-mid="none" marker-end="none" stroke-miterlimit="4" stroke-dashoffset="0" filter="url(#filter5554)" d="m-360.858795,-334.125916c-1.347961,-0.601227 -1.722412,-0.821747 -2.42926,-1.43045c-1.379242,-1.187714 -2.429688,-2.576385 -2.826752,-3.736969c-0.151886,-0.444 -0.330627,-3.085785 -0.922729,-13.639374c-0.4039,-7.198761 -0.764801,-13.44519 -0.802002,-13.880981l-0.067657,-0.792297l1.514252,-0.047333c0.832855,-0.026062 1.531128,-0.036346 1.551697,-0.022858c0.020599,0.013458 0.370331,6.509674 0.777222,14.436035c0.78952,15.381714 0.719086,14.577209 1.394653,15.939087c0.442596,0.892334 1.754791,2.534058 2.64682,3.311584c0.154633,0.134827 0.257263,0.260742 0.228058,0.279846c-0.029236,0.019104 -0.508179,-0.168213 -1.064301,-0.41629l0,0z" id="path5632" clip-path="url(#clipPath5558)"/>
      </g>
     </g>
     <g id="g5392">
      <g id="g4241">
       <path fill="#347fb6" fill-rule="nonzero" stroke-width="5" stroke-linecap="round" stroke-linejoin="round" marker-start="none" marker-mid="none" marker-end="none" stroke-miterlimit="4" stroke-dashoffset="0" id="path3339" d="m-697.360229,-271.997284c-20.104675,-1.613983 -35.807983,-8.712158 -39.258362,-17.745544c-0.801758,-2.09906 -1.022583,-4.294678 -0.727966,-7.236511c1.199402,-11.974548 7.64032,-22.509766 18.370483,-30.048248c1.376526,-0.967041 5.968567,-3.659576 5.948608,-3.487946c-0.03125,0.26825 1.241333,7.064789 1.130676,7.95874c-0.559326,4.517639 5.997559,6.575592 15.698364,8.175354c3.005066,0.495544 7.788025,0.815338 10.746277,0.367432c6.16748,-0.933838 9.134033,-2.146118 11.982788,-4.771973c1.908997,-1.759705 2.54303,-1.983704 2.103699,-4.343567c-0.561218,-3.014709 0.843079,-4.564606 0.709534,-6.363831l0.24939,-1.872803l2.508545,0.804138c10.791504,5.414948 18.885498,14.275635 22.419617,24.543396c1.495972,4.346344 1.925171,6.891663 1.944885,11.53363c0.018738,4.388672 0.016663,4.405121 -0.757751,5.954041c-0.991455,1.983154 -4.732483,5.790222 -7.37793,7.50827c-6.424377,4.17218 -15.389038,7.04184 -26.793274,8.57666c-2.743469,0.369202 -15.974609,0.683441 -18.897583,0.448761l0,0z"/>
       <path fill="#347fb6" fill-rule="nonzero" stroke-width="5" stroke-linecap="round" stroke-linejoin="round" marker-start="none" marker-mid="none" marker-end="none" stroke-miterlimit="4" stroke-dashoffset="0" d="m-697.360229,-271.997284c-20.104675,-1.613983 -35.807983,-8.712158 -39.258362,-17.745544c-0.801758,-2.09903 -1.022583,-4.294647 -0.727966,-7.236511c1.199402,-11.974548 7.64032,-22.509705 18.370483,-30.048248c1.376526,-0.967041 5.968567,-3.659576 5.948608,-3.487946c-0.03125,0.26825 -0.829651,6.805939 -0.940308,7.69989c-0.559326,4.517639 5.997559,8.905457 15.698364,10.505188c3.005127,0.495514 10.635681,0.556458 13.593872,0.108582c6.167542,-0.933899 11.205017,-2.92276 14.053711,-5.548645c1.909058,-1.759644 2.543091,-3.536926 2.10376,-5.89679c-0.561279,-3.014709 -0.710205,-4.046844 -0.843689,-5.846069l-0.138916,-1.872803l1.602478,0.804138c10.791504,5.414948 18.885498,14.275635 22.419617,24.543396c1.495972,4.346375 1.925171,6.891663 1.944885,11.53363c0.018738,4.388672 0.016663,4.405121 -0.757751,5.954071c-0.991455,1.983124 -4.732483,5.790192 -7.37793,7.50824c-6.424377,4.17218 -15.389038,7.04184 -26.793274,8.57666c-2.743469,0.369202 -15.974609,0.683441 -18.897583,0.448761l0,0z" id="path4237"/>
      </g>
      <path fill="#347fb6" fill-rule="evenodd" stroke-width="1px" d="m-674.103027,-381.286011c-5.200684,1.312286 -11.190918,2.0625 -17.59375,2.0625c-5.954285,0 -11.587402,-0.635254 -16.53125,-1.78125l-5.875,56.031281c-0.233093,0.585266 -0.320984,1.19873 -0.34375,1.8125c-0.001648,0.08252 -0.030701,0.167206 -0.03125,0.249969c0.008789,0.71051 0.141663,1.39151 0.4375,2.062531c0.304504,0.690582 0.765442,1.365295 1.34375,2c0.578247,0.634705 1.272339,1.216675 2.09375,1.781219c0.821411,0.564606 1.778687,1.113586 2.8125,1.593781c1.033813,0.480164 2.159485,0.899719 3.375,1.281219c1.215454,0.381531 2.508484,0.731415 3.875,1c1.366455,0.268616 2.794434,0.483582 4.28125,0.625031c1.486755,0.141418 3.048584,0.187469 4.625,0.187469c1.576416,0 3.106934,-0.046051 4.59375,-0.187469c1.486816,-0.141449 2.914734,-0.356384 4.28125,-0.625031c1.366516,-0.268585 2.659485,-0.618469 3.875,-1c1.215454,-0.3815 2.341187,-0.801056 3.375,-1.281219c1.033752,-0.480194 1.991089,-1.029175 2.8125,-1.593781c0.821411,-0.564545 1.515442,-1.146515 2.09375,-1.781219c0.578308,-0.634705 1.039246,-1.309418 1.34375,-2c0.154541,-0.350464 0.140686,-0.700439 0.21875,-1.062531c0.014038,-0.295563 0.09375,-0.576294 0.09375,-0.874969c0,-0.553528 -0.139771,-1.082489 -0.1875,-1.625c-0.068542,-0.233398 -0.024353,-0.490448 -0.125,-0.71875c-0.096252,-0.218231 -0.249146,-0.41217 -0.375,-0.625l-4.46875,-55.531281z" id="path3997"/>
      <path fill="#32597d" fill-rule="nonzero" stroke-width="5" stroke-linecap="round" stroke-linejoin="round" marker-start="none" marker-mid="none" marker-end="none" stroke-miterlimit="4" stroke-dashoffset="0" filter="url(#filter3305)" d="m-721.733032,-385.406921l51.253967,4.0271c0,0 -5.857605,6.223663 -11.898254,9.152466c-6.040649,2.928802 -12.447327,3.294922 -13.36261,5.491516c-2.945251,18.526581 -1.8479,35.782623 -2.928833,54.54892c-0.366089,2.013519 -28.189697,-1.830505 -29.287964,-1.830505c-1.098328,0 4.393188,-40.454041 4.0271,-49.057434c-0.36615,-8.603333 2.562683,-21.966003 2.196594,-22.332062z" id="path3271" clip-path="url(#clipPath3315)"/>
      <path fill="#004080" fill-rule="nonzero" stroke-width="5" stroke-linecap="round" stroke-linejoin="round" marker-start="none" marker-mid="none" marker-end="none" stroke-miterlimit="4" stroke-dashoffset="0" filter="url(#filter4282)" d="m-694.309021,-310.965057c-4.301331,-0.291138 -8.635925,-1.254456 -12.070251,-2.682465c-3.247925,-1.350525 -5.845886,-3.410004 -6.822754,-5.408661c-0.412598,-0.844147 -0.557434,-1.450745 -0.552734,-2.315491l0.003296,-0.613281l0.175781,0.488525c1.458984,4.055511 8.022949,7.414978 16.660706,8.526978c4.311584,0.555084 10.047668,0.410339 14.183838,-0.35791c2.478699,-0.460388 4.962585,-1.183258 7.085449,-2.062012c3.707397,-1.534668 6.648743,-4.053711 7.192139,-6.159424c0.068726,-0.266174 0.079895,-0.133331 0.049072,0.583618c-0.064209,1.494995 -0.473816,2.408386 -1.645508,3.669342c-3.167358,3.40863 -9.859436,5.790558 -17.806519,6.337952c-1.527161,0.105164 -4.847168,0.101471 -6.452515,-0.007172l0,0z" id="path4003"/>
      <path fill="url(#linearGradient5853)" fill-rule="nonzero" stroke-width="5" stroke-linecap="round" stroke-linejoin="round" marker-start="none" marker-mid="none" marker-end="none" stroke-miterlimit="4" stroke-dashoffset="0" filter="url(#filter4901)" d="m-715.018616,-336.228088l5.857605,15.37619c0,0 -10.983032,6.589813 -10.983032,10.983002c0,4.393219 6.589844,8.054199 8.786438,14.644012c2.196594,6.589813 10.250793,17.572784 8.054199,25.627014c-2.196594,8.054199 -46.86084,13.911804 -46.86084,13.911804l-29.287964,-43.199829l23.43042,-33.681183l41.003174,-3.661011z" id="path3343" clip-path="url(#clipPath3345)"/>
      <path fill="#366889" fill-rule="nonzero" stroke-width="5" stroke-linecap="round" stroke-linejoin="round" marker-start="none" marker-mid="none" marker-end="none" stroke-miterlimit="4" stroke-dashoffset="0" filter="url(#filter4145)" d="m-674.737061,-325.671997c0,0 3.164246,0.412018 5.436279,1.294373c2.272095,0.882324 6.413086,2.328186 9.319397,5.177399c2.906372,2.849274 6.791016,10.377808 8.283875,14.237976c1.492859,3.860168 2.454163,8.311218 2.329895,10.87262c-0.124268,2.561371 -0.94635,4.272644 -1.812073,5.69519c-0.865845,1.422546 -3.624268,3.624176 -3.624268,3.624176l2.329834,2.070984l13.461365,-13.461334l-9.060486,-37.277557l-17.344421,-5.69516l-11.131531,6.730652l1.812134,6.730682z" id="path4083" clip-path="url(#clipPath4149)"/>
      <path fill="#67a6c0" fill-rule="nonzero" stroke-width="5" stroke-linecap="round" stroke-linejoin="round" marker-start="none" marker-mid="none" marker-end="none" stroke-miterlimit="4" stroke-dashoffset="0" filter="url(#filter4969)" d="m-697.535217,-272.113464c-17.061768,-1.07196 -31.934082,-6.643341 -37.978333,-14.227203c-1.52417,-1.912415 -2.767639,-4.897186 -2.743164,-6.584686c0.007141,-0.491821 0.008484,-0.491302 0.265808,0.100708c1.149353,2.644409 4.236572,5.855286 7.872742,8.188171c7.922546,5.082916 19.24054,8.220551 32.674438,9.058258c13.121887,0.818176 27.17926,-1.212494 37.342224,-5.394348c2.977234,-1.225098 7.021912,-3.48526 8.987305,-5.022156c2.664673,-2.083649 5.324646,-5.187012 5.95282,-6.945007c0.210266,-0.58844 0.240601,-0.611572 0.269409,-0.205444c0.062927,0.886902 0.318115,-1.395355 0.358093,-3.203369c0.035828,-1.617401 0.057129,-1.723969 0.183044,-0.915253c0.209961,1.347961 0.202881,5.200897 -0.011536,6.331879c-0.102478,0.540009 -0.429199,1.477936 -0.726135,2.08429l-0.539917,1.102448l0.079468,-0.732208c0.069092,-0.637817 0.04718,-0.60791 -0.170166,0.231995c-0.310242,1.198395 -0.542419,1.554016 -2.078735,3.183777c-8.421021,8.933014 -28.878357,14.258728 -49.737366,12.948151l0,0z" id="path4155" clip-path="url(#clipPath4221)"/>
      <path fill="#c3f2ff" fill-rule="nonzero" stroke-width="5" stroke-linecap="round" stroke-linejoin="round" marker-start="none" marker-mid="none" marker-end="none" stroke-miterlimit="4" stroke-dashoffset="0" filter="url(#filter5003)" id="path5007" d="m-683.131348,-300.191528l3.365356,5.695221l8.801636,-3.106476l-2.847595,-5.69519l-9.319397,3.106445z"/>
      <path fill="#c3f2ff" fill-rule="nonzero" stroke-width="5" stroke-linecap="round" stroke-linejoin="round" marker-start="none" marker-mid="none" marker-end="none" stroke-miterlimit="4" stroke-dashoffset="0" filter="url(#filter5118)" d="m-684.958679,-314.139191l0.436523,1.485046l5.506775,-1.27597l-0.284912,-1.118958l-5.658386,0.909882z" id="path4973"/>
      <path fill="#347fb6" fill-rule="evenodd" stroke-width="1px" d="m-727.573059,-403.948334l0,9.59375l0.09375,0c0.416321,8.659119 16.31781,15.624969 35.84375,15.624969c19.52533,0 35.395142,-6.966278 35.8125,-15.624969l0.093811,0l0,-8.3125c0,7.140747 -16.056641,12.9375 -35.843811,12.9375c-19.78717,0 -35.84375,-5.796753 -35.84375,-12.9375c0,-0.436249 0.070435,-0.856079 0.1875,-1.28125l-0.34375,0zm71.843811,1.28125l0,-1.28125l-0.1875,0c0.116943,0.424988 0.1875,0.845215 0.1875,1.28125z" id="path19345"/>
      <path fill="#365677" fill-rule="nonzero" stroke-width="0.647179" stroke-linecap="round" stroke-linejoin="round" marker-start="none" marker-mid="none" marker-end="none" stroke-miterlimit="4" stroke-dashoffset="0" filter="url(#filter3253)" id="path3259" d="m-694.411682,-379.075012c-16.794373,-0.628113 -30.367798,-6.446747 -32.509949,-13.936249c-0.174255,-0.609528 -0.221191,-1.530151 -0.255554,-5.017822c-0.038818,-3.939636 -0.027344,-4.218323 0.148254,-3.587677c0.104736,0.376007 0.394958,1.069214 0.644958,1.540344c0.250061,0.471161 0.454651,1.04245 0.454651,1.269501c0,0.588989 0.461426,2.314209 0.840332,3.141785c1.594788,3.483612 5.786743,6.988403 11.391357,9.524109c5.854431,2.648743 12.454468,4.270874 20.450867,5.026306c2.784546,0.263 10.341003,0.223267 12.943604,-0.068115c6.733582,-0.753845 11.412231,-1.967163 15.791138,-4.095032c4.999573,-2.429535 7.952026,-5.44812 8.665955,-8.860077c0.219543,-1.049347 0.390076,-1.304413 0.264893,-0.396393c-0.328613,2.384796 -1.080139,3.893677 -2.875366,5.772644c-4.585815,4.800018 -13.734863,8.207825 -25.147278,9.366974c-1.735291,0.17627 -3.369019,0.26535 -6.860107,0.374176c-0.747498,0.023315 -2.523987,-0.001221 -3.947754,-0.054474l0,0z" clip-path="url(#clipPath3261)"/>
      <path fill="#336894" fill-rule="evenodd" stroke-width="1px" d="m-655.736633,-402.483185a35.846329,12.936188 0 1 1 -71.692627,0a35.846329,12.936188 0 1 1 71.692627,0z" id="path5171"/>
     </g>
    </g>
   </g>
  </g>
 </g>
</svg>